<?xml version="1.0" encoding="UTF-8"?>
<svg id="Layer_1" data-name="Layer 1" xmlns="http://www.w3.org/2000/svg" viewBox="0 0 428.61 99.81">
  <defs>
    <style>
      .cls-1 {
        fill: #fffffe;
        stroke-width: 0px;
      }

      .cls-2 {
        fill: #fbb040;
        stroke: #fbb040;
        stroke-width: 2px;
      }

      .cls-2, .cls-3 {
        stroke-miterlimit: 10;
      }

      .cls-3 {
        fill: #231f20;
        stroke: #231f20;
      }
    </style>
  </defs>
  <path class="cls-3" d="M45.29,63.22c2.65-.86,4.89-1.9,6.7-3.12-.11-.19.09-1.06.06-7.77,0-.44,0-2.92,0-2.92-.17-.05-6.88.05-7.84-.03-1.32-.11-1.22-.06-1.56-.26-.44-.36-.64-.74-.72-1.41-.13-1.08-.1-1.45-.11-2.22-.01-.85,0-1.37-.02-2.58,0-.23.03-.58.21-.96.08-.17.19-.33.31-.48.35-.4.78-.59,1.31-.59l17.17-.22c.49,0,.92.2,1.29.59s.54.87.54,1.43v23.74c0,.4-.1.79-.3,1.19s-.43.69-.69.89c-2.84,1.98-6.51,3.66-11.03,5.05-4.52,1.39-8.64,2.08-12.37,2.08-6.93,0-13.27-1.66-19.04-4.97s-10.33-7.82-13.68-13.53S.5,45.13.5,38.24s1.67-13.14,5.02-18.85c3.35-5.71,7.9-10.21,13.65-13.53S31.27.89,38.19.89c3.76,0,7.68.65,11.77,1.95,4.09,1.3,7.63,3.17,10.64,5.61.53.43.79.94.79,1.53,0,.43-.12.77-.35,1.04l-4.25,6.38c-.3.49-.74.74-1.34.74-.46,0-.87-.16-1.24-.49-2.24-1.91-4.81-3.33-7.69-4.25-2.89-.92-5.65-1.39-8.29-1.39-4.88,0-9.35,1.16-13.41,3.49s-7.26,5.49-9.62,9.5-3.54,8.42-3.54,13.23,1.18,9.27,3.54,13.28,5.56,7.17,9.62,9.5,8.52,3.49,13.41,3.49c2.04,0,4.39-.43,7.05-1.29Z"/>
  <path class="cls-3" d="M101.71,33.54c0,.3-.1.59-.3.89l-3.71,5.74c-.23.43-.59.64-1.09.64-.3,0-.53-.08-.69-.25l-.35-.3c-.92-.72-2-1.27-3.22-1.63-1.22-.36-2.41-.54-3.56-.54-1.98,0-3.8.47-5.47,1.41s-2.98,2.22-3.96,3.83c-.97,1.62-1.46,3.38-1.46,5.29v22.8c0,.96-.46,1.43-1.39,1.43h-7.91c-.92,0-1.39-.48-1.39-1.43V31.31c0-.43.12-.77.37-1.01s.6-.37,1.06-.37h6.28c.79,0,1.25.3,1.39.89l.89,4.85c1.52-2.18,3.45-3.9,5.81-5.17,2.36-1.27,4.82-1.9,7.4-1.9,2.11,0,4.11.35,6.01,1.04s3.49,1.68,4.77,2.97c.33.23.49.54.49.94Z"/>
  <path class="cls-3" d="M133.5,30.67c2.95,1.35,5.24,3.28,6.88,5.79,1.63,2.51,2.45,5.46,2.45,8.85v26.07c0,.46-.12.82-.37,1.09s-.59.4-1.01.4h-6.03c-.26,0-.5-.08-.72-.25s-.35-.36-.42-.59l-.74-4.35c-1.52,2.01-3.53,3.6-6.03,4.77s-5.52,1.76-9.05,1.76c-3.07,0-5.8-.56-8.19-1.68s-4.25-2.72-5.59-4.8-2-4.5-2-7.27c0-4.02,1.29-7.06,3.86-9.1,2.57-2.04,6.22-3.08,10.93-3.12l14.64-.05v-2.08c0-2.6-.84-4.67-2.52-6.21s-3.83-2.3-6.43-2.3c-2.04,0-4.13.24-6.26.72-2.13.48-3.95,1.15-5.47,2-.46.2-.87.3-1.24.3-.69,0-1.14-.25-1.34-.74l-2.37-4.6c-.13-.26-.2-.56-.2-.89,0-.79.48-1.45,1.43-1.98,1.95-1.19,4.33-2.11,7.15-2.77,2.82-.66,5.6-.99,8.34-.99,3.92,0,7.36.68,10.31,2.03ZM126.77,64.41c1.63-.79,2.93-1.88,3.88-3.26s1.43-2.92,1.43-4.6v-1.09h-13.21c-1.75,0-3.1.39-4.06,1.16-.96.77-1.43,1.85-1.43,3.24,0,1.68.77,3.06,2.32,4.13s3.46,1.61,5.74,1.61c1.91,0,3.69-.4,5.32-1.19Z"/>
  <path class="cls-3" d="M191.09.87c.25.25.37.6.37,1.06v69.45c0,.46-.12.82-.37,1.09s-.6.4-1.06.4h-6.48c-.26,0-.5-.07-.72-.22s-.35-.34-.42-.57l-.89-5.79c-1.75,2.51-3.94,4.44-6.58,5.81s-5.54,2.05-8.71,2.05c-3.89,0-7.4-.99-10.54-2.97s-5.59-4.7-7.37-8.16-2.67-7.34-2.67-11.62.88-8.16,2.65-11.62,4.21-6.18,7.35-8.14c3.13-1.96,6.66-2.94,10.59-2.94,3,0,5.75.6,8.24,1.81,2.49,1.21,4.61,2.91,6.36,5.12l-.15-33.69c0-.43.12-.77.37-1.04.25-.26.59-.4,1.01-.4h7.96c.46,0,.82.12,1.06.37ZM174.52,62.11c1.9-1.1,3.4-2.61,4.5-4.5s1.66-3.98,1.66-6.26-.55-4.3-1.66-6.16c-1.1-1.86-2.61-3.34-4.53-4.43s-4.01-1.63-6.28-1.63-4.25.54-6.11,1.63-3.34,2.57-4.43,4.45-1.63,3.93-1.63,6.13.54,4.36,1.63,6.26,2.56,3.4,4.43,4.5,3.92,1.66,6.16,1.66,4.36-.55,6.26-1.66Z"/>
  <path class="cls-3" d="M235.45,71.88c2.44,1.04,4.33,2.54,5.66,4.5s2,4.28,2,6.95c0,3.33-.91,6.19-2.72,8.58s-4.39,4.22-7.74,5.49-7.25,1.9-11.7,1.9c-3.36,0-6.8-.27-10.31-.82s-6.49-1.31-8.93-2.3c-.33-.16-.59-.39-.77-.67s-.27-.59-.27-.92c0-.2.05-.43.15-.69l2.32-5.79c.13-.33.33-.59.59-.77s.56-.27.89-.27c.13,0,.33.03.59.1,2.04.76,4.5,1.37,7.37,1.83s5.66.69,8.36.69c3.89,0,6.96-.48,9.2-1.43s3.36-2.32,3.36-4.11c0-1.55-.55-2.65-1.66-3.31s-2.79-.99-5.07-.99h-12.86c-2.84,0-5.37-.49-7.59-1.46s-3.96-2.36-5.19-4.16-1.85-3.92-1.85-6.36c0-2.01.45-3.84,1.36-5.49s2.15-2.9,3.73-3.76c-1.29-1.58-2.28-3.36-2.97-5.34s-1.04-4.09-1.04-6.33c0-3.59.79-6.81,2.37-9.65,1.58-2.84,3.78-5.06,6.6-6.68,2.82-1.61,5.99-2.42,9.52-2.42.86,0,1.95.12,3.29.37s2.65.59,3.93,1.01h13.31c.63,0,1.12.17,1.48.49.36.33.54.81.54,1.43v4.95c0,.53-.19.98-.57,1.36-.38.38-.87.57-1.46.57h-4.45c1.78,2.7,2.67,5.57,2.67,8.61.03,3.5-.77,6.65-2.4,9.45-1.63,2.8-3.88,5-6.75,6.58s-6.1,2.37-9.7,2.37c-2.7,0-5.29-.54-7.77-1.63-.66.3-1.18.74-1.56,1.34s-.57,1.29-.57,2.08c0,.92.47,1.67,1.41,2.25s2.15.87,3.64.87h12.86c3.33,0,6.22.52,8.66,1.56ZM214.6,39.33c-1.3.77-2.33,1.83-3.09,3.17s-1.14,2.81-1.14,4.43.37,3.03,1.11,4.33c.74,1.3,1.76,2.33,3.07,3.09s2.75,1.14,4.33,1.14,3.14-.37,4.48-1.11,2.39-1.76,3.17-3.07c.77-1.3,1.16-2.75,1.16-4.33s-.39-3.14-1.16-4.48-1.83-2.39-3.17-3.17c-1.34-.77-2.81-1.16-4.43-1.16s-3.03.39-4.33,1.16Z"/>
  <path class="cls-3" d="M358.27,41.91c-.94.61-1.41,1.44-1.41,2.5,0,.69.21,1.28.62,1.76.41.48,1.18.94,2.3,1.39s2.79.95,5,1.51c3.46.86,6.32,1.89,8.58,3.09,2.26,1.21,3.99,2.75,5.19,4.63s1.81,4.22,1.81,7.02c0,4.19-1.57,7.39-4.7,9.6s-7.4,3.31-12.81,3.31c-3.33,0-6.56-.52-9.7-1.56s-5.8-2.18-8.01-3.44c-.66-.36-.99-.82-.99-1.39,0-.36.12-.71.35-1.04l3.17-5.59c.36-.59.82-.89,1.39-.89.33,0,.69.1,1.09.3,4.65,2.41,8.89,3.61,12.71,3.61,2.37,0,4.17-.26,5.39-.79s1.83-1.4,1.83-2.62-.63-2.15-1.88-2.89-3.25-1.46-5.99-2.15c-3.56-.89-6.45-1.9-8.66-3.02-2.21-1.12-3.9-2.6-5.07-4.45-1.17-1.85-1.76-4.2-1.76-7.07,0-2.24.61-4.33,1.83-6.26s3-3.48,5.34-4.65c2.34-1.17,5.13-1.76,8.36-1.76,2.84,0,5.66.43,8.48,1.29,2.82.86,5.2,1.86,7.15,3.02.73.4,1.09.89,1.09,1.48,0,.33-.12.68-.35,1.04l-3.22,5.39c-.4.66-.87.99-1.43.99-.1,0-.28-.03-.54-.1-1.62-.86-3.43-1.6-5.44-2.23-2.01-.62-3.92-.94-5.74-.94-1.71,0-3.04.31-3.98.92Z"/>
  <path class="cls-3" d="M417.71,34.22c3.33,2.05,5.91,4.81,7.74,8.29,1.83,3.48,2.71,7.28,2.65,11.4-.03,1.39-.49,2.47-1.39,3.24-.89.77-1.95,1.16-3.17,1.16h-28.1c.89,2.51,2.38,4.56,4.48,6.16s4.46,2.4,7.1,2.4c2.84,0,5.87-1.12,9.1-3.36.36-.2.68-.3.94-.3.36,0,.69.2.99.59l1.73,2.42c.79,1.06,1.43,1.95,1.93,2.67.2.33.3.66.3.99,0,.4-.16.74-.49,1.04-4.42,3.79-9.3,5.69-14.64,5.69-4.19,0-8.04-1.02-11.55-3.07s-6.3-4.81-8.36-8.29-3.09-7.28-3.09-11.4,1-7.96,2.99-11.43,4.72-6.21,8.19-8.24,7.29-3.04,11.48-3.04,7.85,1.02,11.18,3.07ZM399.12,43.99c-2.08,1.57-3.43,3.64-4.06,6.21h21.91c-.59-2.57-1.81-4.64-3.66-6.21-1.85-1.56-4.14-2.35-6.88-2.35s-5.24.78-7.32,2.35Z"/>
  <path class="cls-2" d="M296.59,60.73c2.89,7.2,10.68,15.31,20.98,14.95,9.6-.33,16.34-7.63,18.92-14.23,7.23-18.52-8.48-44.83-21.02-44.5-12.13.32-26.15,25.65-18.88,43.78Z"/>
  <path class="cls-2" d="M244.66,53.18c-.27,7.75,3.59,18.32,13.15,22.15,8.91,3.57,18.03-.38,23.06-5.38,14.09-14.02,10.35-44.43-1.26-49.2-11.22-4.61-34.28,12.9-34.96,32.42Z"/>
  <path class="cls-1" d="M254.72,34.1c-.17-.17,2.91-5.63,9.47-9.96,6.24-4.12,12.72-3.51,12.78-3.32.05.16-4.66.92-10.1,4.2-8.2,4.94-11.97,9.28-12.15,9.09Z"/>
  <path class="cls-1" d="M299.83,34.28c-.14-.08.41-2.79,2.36-6.22,1.04-1.84,2.61-3.79,4.4-5.86,4.9-5.64,10.9-5.36,11.01-5.19.09.14-3.59.72-7.95,5.34-2.38,2.52-4.46,4.67-5.95,6.54-2.62,3.3-3.73,5.48-3.87,5.39Z"/>
</svg>